<?xml version="1.0" encoding="UTF-8"?>
<svg xmlns="http://www.w3.org/2000/svg" version="1.1" viewBox="0 0 1150 480">
  <defs>
    <style>
      .cls-1 {
        fill: #00aeef;
      }

      .cls-2 {
        display: none;
        fill: #00a651;
      }
    </style>
  </defs>
  <!-- Generator: Adobe Illustrator 28.7.2, SVG Export Plug-In . SVG Version: 1.2.0 Build 154)  -->
  <g>
    <g id="Layer_1">
      <g>
        <path class="cls-1" d="M689.6,2H61.79c-33.02,0-59.79,26.64-59.79,59.5v238c0,32.86,26.77,59.5,59.79,59.5h119.58c33.02,0,59.79,26.64,59.79,59.5h0c0,32.86,26.77,59.5,59.79,59.5h787.25c33.02,0,59.79-26.64,59.79-59.5v-238c0-32.86-26.77-59.5-59.79-59.5h-279.03c-33.02,0-59.79-26.64-59.79-59.5h0c0-32.86-26.77-59.5-59.79-59.5Z"/>
        <rect class="cls-2" x="749.39" y="2" width="398.61" height="119"/>
        <rect class="cls-2" x="2" y="359" width="239.17" height="119"/>
      </g>
    </g>
  </g>
</svg>